<svg xmlns="http://www.w3.org/2000/svg" xmlns:xlink="http://www.w3.org/1999/xlink" width="413.214" height="81.573" viewBox="0 0 413.214 81.573">
  <defs>
    <clipPath id="clip-path">
      <path id="Path_33" data-name="Path 33" d="M0,40.779A36.744,36.744,0,1,0,36.743,4.034,36.743,36.743,0,0,0,0,40.779" transform="translate(0 -4.034)" fill="none"/>
    </clipPath>
  </defs>
  <g id="Group_6907" data-name="Group 6907" transform="translate(8832 4041)">
    <path id="Path_1" data-name="Path 1" d="M73.249,39.575a3.177,3.177,0,0,1-1.25.217,4.456,4.456,0,0,1-2.664-.87,4.123,4.123,0,0,1-1.794-3.261,4.346,4.346,0,0,1,.924-2.556,52.564,52.564,0,0,0,8.263-17.776,3.094,3.094,0,0,1,3.262-2.718,7.642,7.642,0,0,1,1.74.272c2.227.6,3.261,1.74,3.261,3.316a4.152,4.152,0,0,1-.217,1.359,76.073,76.073,0,0,1-3.424,9.621V61.264c0,1.9-1.576,2.881-4.132,2.881s-3.968-.979-3.968-2.881ZM85.643,44.3c-1.9,0-2.989-1.522-2.989-3.968,0-2.337,1.087-3.805,2.989-3.805H97V33.27H91.188c-4.023,0-5.545-2.338-5.545-5.491V19.517c0-3.207,1.522-5.545,5.545-5.545h20.494c4.131,0,5.707,2.338,5.707,5.545v8.263c0,3.153-1.576,5.491-5.707,5.491h-6.415v3.261h12.285c1.957,0,2.989,1.413,2.989,3.751,0,2.446-1.032,4.023-2.989,4.023h-8.1a35.616,35.616,0,0,0,9.077,7.719,4.344,4.344,0,0,1,2.338,3.7,4.931,4.931,0,0,1-.816,2.664,4.561,4.561,0,0,1-3.751,2.338,4.809,4.809,0,0,1-2.718-.925,34.679,34.679,0,0,1-8.861-9.295,21.2,21.2,0,0,1,.544,4.457V61.1c0,2.011-1.3,3.154-4.186,3.154C98.254,64.255,97,63.112,97,61.1V54.959a15.654,15.654,0,0,1,.6-4.4,31.578,31.578,0,0,1-8.371,9.621,4.541,4.541,0,0,1-2.772.978,4.484,4.484,0,0,1-3.479-1.9A4.659,4.659,0,0,1,82,56.481a4.132,4.132,0,0,1,2.119-3.534A33.672,33.672,0,0,0,93.308,44.3Zm23.375-21.472c0-1.087-.272-1.141-1.2-1.141H94.939c-.925,0-1.2.054-1.2,1.141v1.794c0,1.033.27,1.087,1.2,1.087h12.882c.925,0,1.2-.054,1.2-1.087Z" transform="translate(-8814.64 -4037.757)" fill="#ed7a9b"/>
    <path id="Path_2" data-name="Path 2" d="M151.523,23.2c2.065,1.521,4.078,3.1,5.708,4.512a3.336,3.336,0,0,1,1.251,2.61,3.544,3.544,0,0,1-1.033,2.5,4.3,4.3,0,0,1-2.991,1.359,3.37,3.37,0,0,1-2.391-.978c-.6-.544-1.2-1.143-1.849-1.686-13.97.924-25.277,1.251-35.876,1.3-1.957,0-2.935-1.251-2.99-3.534v-.163c0-1.956,1.033-3.261,2.881-3.261,2.229,0,4.457.054,6.632.054q.245-.326.489-.652c.49-.652.979-1.359,1.413-2.065h-10.49c-1.74,0-2.664-1.359-2.664-3.7,0-2.229.924-3.588,2.664-3.588h18.047v-1.2c0-1.848,1.25-2.5,4.348-2.5,3.153,0,4.4.652,4.4,2.5v1.2h19.079c1.74,0,2.664,1.3,2.664,3.588s-.924,3.7-2.664,3.7ZM123.692,61.8c0,1.956-1.576,2.718-4.186,2.718s-4.24-.762-4.24-2.935V39.24c0-4.132,2.121-5.273,7.23-5.273h25.059c5.11,0,7.229,1.141,7.229,5.273V57.124c0,5-2.229,6.9-7.774,6.9a26.847,26.847,0,0,1-6.2-.544,2.962,2.962,0,0,1-2.119-3.1,3.121,3.121,0,0,1,.054-.708,2.823,2.823,0,0,1,2.772-2.718,1.519,1.519,0,0,1,.49.054,22.4,22.4,0,0,0,3.153.272c1.087,0,1.359-.162,1.359-1.25v-.652h-22.83Zm22.83-20.494c0-.924-.109-1.087-1.2-1.087H124.887c-1.087,0-1.2.163-1.2,1.087v.761h22.83Zm-22.83,8.372h22.83v-1.9h-22.83ZM132.008,23.2a24.127,24.127,0,0,1-1.957,2.664c4.294-.054,8.589-.217,12.883-.381-1.033-.816-2.011-1.522-3.043-2.283Z" transform="translate(-8803.826 -4037.857)" fill="#ed7a9b"/>
    <path id="Path_3" data-name="Path 3" d="M171.056,31.03c2.264,0,3.381.422,4.287,1.51a4.689,4.689,0,0,1,.936,3.139,9.71,9.71,0,0,1-.09,1.3,22.589,22.589,0,0,1-16.877,18.658,4.7,4.7,0,0,1-1.087.151,2.519,2.519,0,0,1-2.6-1.811,3.947,3.947,0,0,1-.181-1.148,2.468,2.468,0,0,1,1.962-2.505c7.034-1.932,11.926-6.884,12.8-12.65a1.867,1.867,0,0,0,.03-.393c0-.664-.333-.905-1.148-.905H153.757c-1.3,0-2.113-1.178-2.113-2.688s.784-2.656,2.113-2.656Z" transform="translate(-8793.021 -4033.023)" fill="#ed7a9b"/>
    <path id="Path_4" data-name="Path 4" d="M187.465,45.149a9.936,9.936,0,0,1-1.811,2.807,22.534,22.534,0,0,1-7.155,5.405,3.1,3.1,0,0,1-1.118.241,2.257,2.257,0,0,1-1.992-1.238,2.915,2.915,0,0,1-.3-1.3,2.122,2.122,0,0,1,1.146-2.024,19.778,19.778,0,0,0,8.182-6.914h-7.336c-1.086,0-1.751-.935-1.751-2.143s.665-2.2,1.751-2.2h10.054v-1.9c0-1.237,1-1.87,2.294-1.87,1.48,0,2.326.694,2.356,1.842l.029,1.932h3.14c1.057,0,1.691,1,1.691,2.2s-.634,2.143-1.691,2.143h-3.11l.122,11.835c0,1.238-.876,1.842-2.265,1.842-1.448,0-2.415-.694-2.415-1.811l-.03-5.645a19.936,19.936,0,0,1,.271-3.2Z" transform="translate(-8786.997 -4032.257)" fill="#ed7a9b"/>
    <path id="Path_5" data-name="Path 5" d="M220.909,50.492c0,3.109-1.661,4.437-4.71,4.437H200.983c-3.048,0-4.709-1.329-4.709-4.437V35.276c0-3.11,1.661-4.439,4.709-4.439H216.2c3.05,0,4.71,1.329,4.71,4.439ZM215.324,37.3c0-.967-.241-1.3-1.238-1.3H203.1c-1,0-1.238.332-1.238,1.3V48.47c0,.965.241,1.3,1.238,1.3h10.989c1,0,1.238-.332,1.238-1.3Z" transform="translate(-8781.551 -4033.073)" fill="#ed7a9b"/>
    <path id="Path_6" data-name="Path 6" d="M220.355,43.9c-1.51,0-2.294-1.148-2.294-2.807s.784-2.808,2.294-2.808H241.73c1.511,0,2.3,1.146,2.3,2.808s-.784,2.807-2.3,2.807Z" transform="translate(-8775.95 -4031.159)" fill="#ed7a9b"/>
    <path id="Path_7" data-name="Path 7" d="M240.567,39.969a2.989,2.989,0,0,1,.332-1.359,2.5,2.5,0,0,1,2.265-1.57,2.421,2.421,0,0,1,.905.181,41.759,41.759,0,0,1,6.069,2.989,2.266,2.266,0,0,1,1.237,2.023,3.629,3.629,0,0,1-.392,1.51,2.6,2.6,0,0,1-2.324,1.448,2.672,2.672,0,0,1-1.449-.422,58.574,58.574,0,0,0-5.344-2.747,2.164,2.164,0,0,1-1.3-2.053M259.648,50.6c-3.623,3.231-9.419,5.223-15.156,5.495h-.181a2.515,2.515,0,0,1-2.716-2.386,2.136,2.136,0,0,1-.03-.422,2.325,2.325,0,0,1,2.294-2.505c4.861-.211,9.813-2.054,12.318-4.378a18.656,18.656,0,0,0,5.283-9.722,2.4,2.4,0,0,1,2.506-2.021,3.417,3.417,0,0,1,.754.089,2.254,2.254,0,0,1,2.023,2.326,4.238,4.238,0,0,1-.091.845,22.576,22.576,0,0,1-7,12.681m-7.095-18.085a2.32,2.32,0,0,1,1.329,2.053,3.37,3.37,0,0,1-.422,1.51,2.483,2.483,0,0,1-3.562,1.118,43.135,43.135,0,0,0-5.405-2.688A2.178,2.178,0,0,1,243.1,32.42a2.8,2.8,0,0,1,.3-1.268,2.509,2.509,0,0,1,2.294-1.54,2.877,2.877,0,0,1,.967.182,32.2,32.2,0,0,1,5.887,2.716" transform="translate(-8770.166 -4033.388)" fill="#ed7a9b"/>
    <path id="Path_8" data-name="Path 8" d="M281.548,30.766h.151a3.609,3.609,0,0,1,3.442,1.57,3.216,3.216,0,0,1,.483,1.81,8.493,8.493,0,0,1-.453,2.507A26.961,26.961,0,0,1,281,44.473a67.281,67.281,0,0,1,7.034,6.158,2.753,2.753,0,0,1,.784,1.9,3.3,3.3,0,0,1-.845,2.084,3.059,3.059,0,0,1-2.235,1,2.291,2.291,0,0,1-1.751-.754,54.759,54.759,0,0,0-6.582-6.31,30.464,30.464,0,0,1-11.049,7.215,3.04,3.04,0,0,1-1.116.211,2.462,2.462,0,0,1-2.356-1.721,3.6,3.6,0,0,1-.272-1.329,2.344,2.344,0,0,1,1.48-2.234c6.853-2.807,13.043-8.12,15.066-13.677a1.66,1.66,0,0,0,.091-.483c0-.362-.211-.513-.694-.513l-11.987.181c-1.146.03-2.053-1.057-2.053-2.657,0-1.57.936-2.626,2.083-2.626Z" transform="translate(-8764.495 -4033.091)" fill="#ed7a9b"/>
    <path id="Path_9" data-name="Path 9" d="M301.872,43.255c-.211,6.369-3.291,11.11-9.117,13.132a4.677,4.677,0,0,1-1.479.272,2.414,2.414,0,0,1-2.354-1.419,3.323,3.323,0,0,1-.332-1.389,2.431,2.431,0,0,1,1.72-2.385c3.835-1.389,5.737-4.045,5.918-8.211H286.6c-1.327,0-2.023-1-2.023-2.446s.7-2.445,2.023-2.445h23.035c1.33,0,2.024,1,2.024,2.445s-.694,2.446-2.024,2.446Zm-12.589-7.82c-1.329,0-2.023-1.026-2.023-2.475,0-1.54.694-2.507,2.023-2.507h17.631c1.329,0,2.023,1.057,2.023,2.507s-.694,2.475-2.023,2.475Z" transform="translate(-8758.853 -4033.172)" fill="#ed7a9b"/>
    <path id="Path_10" data-name="Path 10" d="M323.959,41.829a2.444,2.444,0,0,1-.3-1.178,2.148,2.148,0,0,1,1.449-2.083,3.479,3.479,0,0,1,1.178-.211,2.741,2.741,0,0,1,2.385,1.48,78.884,78.884,0,0,1,5.434,11.5,4.417,4.417,0,0,1,.3,1.6,2.489,2.489,0,0,1-1.721,2.507,3.744,3.744,0,0,1-1.237.241,2.336,2.336,0,0,1-2.175-1.3c-.181-.422-.362-.875-.6-1.449a123.293,123.293,0,0,1-19.232,2.476h-.211a2.473,2.473,0,0,1-2.627-2.507v-.332c0-1.478.756-2.505,1.962-2.566.452,0,1.359-.03,1.66-.062a117.93,117.93,0,0,0,6.25-18.476,2.387,2.387,0,0,1,2.537-2.053,7.455,7.455,0,0,1,.784.06,2.489,2.489,0,0,1,2.264,2.505,3.434,3.434,0,0,1-.09.755,104.361,104.361,0,0,1-5.8,16.876,100.5,100.5,0,0,0,10.748-1.358,64.882,64.882,0,0,0-2.959-6.431" transform="translate(-8753.191 -4033.437)" fill="#ed7a9b"/>
    <path id="Path_11" data-name="Path 11" d="M173.923,21.924a12.605,12.605,0,0,0,.1,2.1h-2.6a12.342,12.342,0,0,0,.109-2.065V15.7a12.262,12.262,0,0,0-.1-1.764c.5.024.833.035,1.764.035h3.492a14.261,14.261,0,0,0,2.03-.084v2.3A16.3,16.3,0,0,0,176.7,16.1h-2.779v1.982h2.271A15.29,15.29,0,0,0,178.127,18v2.236a15.841,15.841,0,0,0-1.933-.084h-2.271Z" transform="translate(-8787.938 -4037.43)" fill="#ed7a9b"/>
    <path id="Path_12" data-name="Path 12" d="M190.234,18.979c0,3.19-1.946,5.3-4.882,5.3-2.96,0-4.87-2.067-4.87-5.268s1.909-5.233,4.881-5.233,4.871,2.03,4.871,5.2M187.72,19c0-1.957-.894-3.143-2.357-3.143s-2.38,1.2-2.38,3.143c0,1.97.906,3.19,2.38,3.19s2.357-1.208,2.357-3.19" transform="translate(-8785.607 -4037.457)" fill="#ed7a9b"/>
    <path id="Path_13" data-name="Path 13" d="M193.676,24.01c-.833,0-1.329.013-1.788.036a10.98,10.98,0,0,0,.1-1.765V15.9a14.811,14.811,0,0,0-.1-1.946h2.634a12.012,12.012,0,0,0-.1,1.909v5.994h2.924a14.406,14.406,0,0,0,2.008-.084v2.319a16.056,16.056,0,0,0-2.008-.084Z" transform="translate(-8782.679 -4037.412)" fill="#ed7a9b"/>
    <path id="Path_14" data-name="Path 14" d="M202.957,24.01c-.833,0-1.329.013-1.788.036a10.981,10.981,0,0,0,.1-1.765V15.9a14.812,14.812,0,0,0-.1-1.946H203.8a12.017,12.017,0,0,0-.1,1.909v5.994h2.924a14.407,14.407,0,0,0,2.008-.084v2.319a16.057,16.057,0,0,0-2.008-.084Z" transform="translate(-8780.293 -4037.412)" fill="#ed7a9b"/>
    <path id="Path_15" data-name="Path 15" d="M219.962,18.979c0,3.19-1.946,5.3-4.882,5.3-2.96,0-4.87-2.067-4.87-5.268s1.909-5.233,4.881-5.233,4.871,2.03,4.871,5.2M217.448,19c0-1.957-.894-3.143-2.357-3.143s-2.38,1.2-2.38,3.143c0,1.97.906,3.19,2.38,3.19s2.357-1.208,2.357-3.19" transform="translate(-8777.967 -4037.457)" fill="#ed7a9b"/>
    <path id="Path_16" data-name="Path 16" d="M229.219,24.01a10.6,10.6,0,0,0-.254-1.292l-.918-3.552c-.121-.471-.217-1.028-.338-1.825-.073.5-.219,1.256-.363,1.825l-.894,3.564a9.047,9.047,0,0,0-.267,1.281h-2.4c-.06-.351-.121-.6-.3-1.3l-1.933-7.251c-.17-.616-.338-1.172-.459-1.5h2.755a7.92,7.92,0,0,0,.168,1.33l.773,3.673c.036.181.121.749.267,1.7.181-1.014.265-1.449.338-1.7l.967-3.746a10.675,10.675,0,0,0,.267-1.257h2.151a10.111,10.111,0,0,0,.278,1.221l.979,3.722c.1.386.181.786.338,1.764.024-.229.024-.229.1-.737.036-.265.121-.846.17-1.04l.761-3.6a6.636,6.636,0,0,0,.182-1.33h2.743c-.121.327-.29.894-.448,1.5l-1.933,7.238a10.7,10.7,0,0,0-.3,1.317Z" transform="translate(-8775.17 -4037.412)" fill="#ed7a9b"/>
    <path id="Path_17" data-name="Path 17" d="M249.024,20.785a1.6,1.6,0,0,0,.314.894,1.764,1.764,0,0,0,1.414.568c.93,0,1.486-.411,1.486-1.087a.909.909,0,0,0-.508-.846,9.656,9.656,0,0,0-1.813-.5,4.681,4.681,0,0,1-1.945-.7A2.72,2.72,0,0,1,246.8,16.8c0-1.862,1.5-3.033,3.879-3.033a3.935,3.935,0,0,1,3.36,1.378,3.365,3.365,0,0,1,.6,1.449l-2.562.278c-.145-.784-.579-1.111-1.5-1.111-.737,0-1.281.4-1.281.954a.83.83,0,0,0,.568.773,7.15,7.15,0,0,0,1.668.4,5.815,5.815,0,0,1,1.957.689,2.7,2.7,0,0,1,1.3,2.465,3.023,3.023,0,0,1-.846,2.224,4.424,4.424,0,0,1-3.178,1.027,5.742,5.742,0,0,1-2.7-.592,2.865,2.865,0,0,1-1.3-1.547,4.555,4.555,0,0,1-.266-1.124Z" transform="translate(-8768.638 -4037.462)" fill="#ed7a9b"/>
    <path id="Path_18" data-name="Path 18" d="M262.44,22.221a14.661,14.661,0,0,0,.1,1.788H259.9a15.963,15.963,0,0,0,.1-1.788V19.985l-2.779-4.568c-.217-.373-.484-.773-.967-1.462h3.057a5.855,5.855,0,0,0,.568,1.27l1.341,2.452,1.341-2.441a5.42,5.42,0,0,0,.556-1.281h3.057c-.351.508-.809,1.2-.967,1.462l-2.767,4.568Z" transform="translate(-8766.134 -4037.413)" fill="#ed7a9b"/>
    <path id="Path_19" data-name="Path 19" d="M269.768,20.785a1.6,1.6,0,0,0,.314.894,1.765,1.765,0,0,0,1.414.568c.93,0,1.486-.411,1.486-1.087a.909.909,0,0,0-.508-.846,9.657,9.657,0,0,0-1.813-.5,4.68,4.68,0,0,1-1.945-.7,2.72,2.72,0,0,1-1.173-2.319c0-1.862,1.5-3.033,3.879-3.033a3.935,3.935,0,0,1,3.36,1.378,3.364,3.364,0,0,1,.6,1.449l-2.562.278c-.145-.784-.579-1.111-1.5-1.111-.737,0-1.281.4-1.281.954a.83.83,0,0,0,.568.773,7.146,7.146,0,0,0,1.668.4,5.815,5.815,0,0,1,1.957.689,2.7,2.7,0,0,1,1.3,2.465,3.023,3.023,0,0,1-.846,2.224,4.424,4.424,0,0,1-3.178,1.027,5.742,5.742,0,0,1-2.7-.592,2.865,2.865,0,0,1-1.3-1.547,4.56,4.56,0,0,1-.267-1.124Z" transform="translate(-8763.306 -4037.462)" fill="#ed7a9b"/>
    <path id="Path_20" data-name="Path 20" d="M282.8,22.2a13.869,13.869,0,0,0,.1,1.824h-2.67a13.545,13.545,0,0,0,.1-1.824v-6.09H278.9a16.581,16.581,0,0,0-1.825.084V13.888a16.765,16.765,0,0,0,1.8.084h5.292a16.016,16.016,0,0,0,1.886-.084V16.2a15.63,15.63,0,0,0-1.886-.084H282.8Z" transform="translate(-8760.782 -4037.43)" fill="#ed7a9b"/>
    <path id="Path_21" data-name="Path 21" d="M295.22,24.112a15.569,15.569,0,0,0-1.994-.084H289.42c-.919,0-1.257.011-1.776.035a11.256,11.256,0,0,0,.1-1.764V15.7a12.958,12.958,0,0,0-.1-1.765c.5.024.833.036,1.776.036h3.854a14.554,14.554,0,0,0,1.8-.085v2.26a14.855,14.855,0,0,0-1.8-.084h-3.141V17.84h2.61a14.385,14.385,0,0,0,1.813-.085v2.236a14.944,14.944,0,0,0-1.813-.084h-2.61v2.03h3.117a16.669,16.669,0,0,0,1.97-.084Z" transform="translate(-8758.063 -4037.43)" fill="#ed7a9b"/>
    <path id="Path_22" data-name="Path 22" d="M301.737,24.01a9.388,9.388,0,0,0-.52-1.788l-1.111-3.214c-.013-.062-.375-1.185-.411-1.282-.132-.435-.132-.435-.192-.6.072.761.121,1.752.121,2.392v2.622a12.872,12.872,0,0,0,.1,1.873h-2.381a13.3,13.3,0,0,0,.1-1.873v-6.3a16.676,16.676,0,0,0-.1-1.886h3.19a8.884,8.884,0,0,0,.459,1.7l1.813,5.209,1.8-5.209a8.267,8.267,0,0,0,.447-1.7h3.2a14.144,14.144,0,0,0-.1,1.886v6.3a12.11,12.11,0,0,0,.1,1.873h-2.38a13.273,13.273,0,0,0,.1-1.873V19.5c0-.29.037-1.2.06-1.571.035-.641.035-.641.048-.822-.265.943-.386,1.378-.543,1.813l-1.173,3.311a11.174,11.174,0,0,0-.52,1.776Z" transform="translate(-8755.571 -4037.412)" fill="#ed7a9b"/>
    <path id="Path_23" data-name="Path 23" d="M73.488,40.778A36.744,36.744,0,1,1,36.743,4.033,36.744,36.744,0,0,1,73.488,40.778" transform="translate(-8832 -4039.963)" fill="#ed7a9b"/>
    <rect id="Rectangle_1594" data-name="Rectangle 1594" width="413.214" height="81.573" transform="translate(-8832 -4041)" fill="none"/>
    <g id="Group_4" data-name="Group 4" transform="translate(-8832 -4035.928)">
      <g id="Group_3" data-name="Group 3" clip-path="url(#clip-path)">
        <path id="Path_24" data-name="Path 24" d="M33.423,58.847a1.662,1.662,0,0,1-1-.334c-1.594-1.361-8.327-7.462-11.827-11.082C16.906,43.6,13.31,39.382,13.31,33.554c0-5.228,4.7-9.483,10.475-9.483a11.32,11.32,0,0,1,9.608,4.67,11.3,11.3,0,0,1,9.62-4.67c5.776,0,10.475,4.255,10.475,9.483,0,5.829-3.6,10.05-7.281,13.874-3.418,3.535-10.161,9.619-11.875,11.085a1.4,1.4,0,0,1-.909.334M23.785,26.87c-4.234,0-7.678,3-7.678,6.684,0,4.791,3.075,8.378,6.5,11.933C25.42,48.4,30.863,53.4,33.377,55.633c2.454-2.168,7.887-7.117,10.816-10.148,3.423-3.552,6.5-7.14,6.5-11.931,0-3.686-3.443-6.684-7.677-6.684-4.028,0-7.043,1.943-8.275,5.331a1.4,1.4,0,0,1-1.315.92,1.463,1.463,0,0,1-1.36-.914c-1.256-3.393-4.273-5.337-8.278-5.337" transform="translate(3.421 1.116)" fill="#fff"/>
        <path id="Path_25" data-name="Path 25" d="M21.967,13.417a1.136,1.136,0,0,0,.274-.034c6.863-1.7,4.7-11.824,4.606-12.254a1.137,1.137,0,1,0-2.221.492c.018.084,1.784,8.384-2.931,9.554a1.138,1.138,0,0,0,.273,2.243" transform="translate(5.354 -5.009)" fill="#fff"/>
        <path id="Path_26" data-name="Path 26" d="M28.569,13.619A1.127,1.127,0,0,0,29,13.532c6.535-2.7,2.9-12.389,2.739-12.8a1.139,1.139,0,0,0-2.126.817c.031.08,3.023,8.02-1.482,9.88a1.138,1.138,0,0,0,.435,2.191" transform="translate(7.051 -5.071)" fill="#fff"/>
        <path id="Path_27" data-name="Path 27" d="M34.985,13.777a1.116,1.116,0,0,0,.541-.138C41.743,10.272,37.112,1.014,36.912.622a1.138,1.138,0,0,0-2.029,1.033c.039.077,3.83,7.669-.441,9.982a1.139,1.139,0,0,0,.543,2.139" transform="translate(8.7 -5.071)" fill="#fff"/>
        <path id="Path_28" data-name="Path 28" d="M22.486,18.145a2.729,2.729,0,1,0-2.729-2.729,2.729,2.729,0,0,0,2.729,2.729" transform="translate(5.078 -1.81)" fill="#fff"/>
        <path id="Path_29" data-name="Path 29" d="M34.483,15.416a2.729,2.729,0,1,0,2.729-2.729,2.729,2.729,0,0,0-2.729,2.729" transform="translate(8.864 -1.81)" fill="#fff"/>
        <path id="Path_30" data-name="Path 30" d="M23.59,18.559a1.078,1.078,0,0,0-.165,1.515c.121.152,3.04,3.732,7.3,3.85.073,0,.145,0,.217,0,2.586,0,5.046-1.28,7.312-3.808a1.079,1.079,0,1,0-1.605-1.442c-1.884,2.1-3.872,3.1-5.85,3.09-3.254-.082-5.668-3.016-5.693-3.046a1.079,1.079,0,0,0-1.516-.162" transform="translate(5.96 -0.362)" fill="#fff"/>
        <path id="Path_31" data-name="Path 31" d="M32.2,57.382,21.856,49.757a5.807,5.807,0,0,0-3.161-1.167L13.8,37.365l-.028-.054c-1.162-2.285-2.97-3.194-4.965-2.534-1.613.547-2.857,2.527-2,5.717l3.9,15.233.028.087a7.613,7.613,0,0,0,3.394,4.206c1.165.67,4.348,2.924,5.761,3.931l.49,8.524a.227.227,0,0,0,.228.214H32.126a.233.233,0,0,0,.162-.067.225.225,0,0,0,.065-.163l-.062-14.895a.223.223,0,0,0-.092-.181m-16.617-7.1c-1.189,1.821-.569,4.075,1.619,5.884l5.518,4.287a.227.227,0,0,0,.319-.04l.97-1.248a.227.227,0,0,0-.04-.319L18.486,54.58c-.5-.415-2.057-1.869-1.2-3.188a1.537,1.537,0,0,1,1.009-.735,3.32,3.32,0,0,1,2.364.75l9.6,7.076.044,12.169H22.249l-.41-7.708a.224.224,0,0,0-.094-.171l-.287-.207-.048-.034c-1.121-.8-4.887-3.487-6.264-4.279a5.557,5.557,0,0,1-2.476-3.081l-3.889-15.2c-.518-1.923-.031-3.027.68-3.267.987-.333,1.8.16,2.481,1.492l4.768,10.936a3.831,3.831,0,0,0-1.128,1.141" transform="translate(1.679 3.814)" fill="#fff"/>
        <path id="Path_32" data-name="Path 32" d="M55.053,34.777c-2-.667-3.805.251-4.97,2.547L45.169,48.592a5.8,5.8,0,0,0-3.178,1.178L31.663,57.383a.221.221,0,0,0-.093.181l-.059,14.9a.217.217,0,0,0,.065.162.224.224,0,0,0,.161.067H43.254a.227.227,0,0,0,.228-.214l.489-8.524c1.154-.823,4.547-3.232,5.761-3.931a7.6,7.6,0,0,0,3.393-4.2c0-.008.019-.052.023-.06l3.9-15.249c.862-3.2-.381-5.183-2-5.73M42.4,62.567l-.287.207a.225.225,0,0,0-.094.172l-.41,7.707H33.556L33.6,58.484l9.582-7.063a3.34,3.34,0,0,1,2.378-.763,1.519,1.519,0,0,1,1.011.735c.862,1.322-.7,2.776-1.192,3.184l-5.491,4.265a.223.223,0,0,0-.085.152.227.227,0,0,0,.045.167l.972,1.25a.228.228,0,0,0,.319.039l5.526-4.29c2.182-1.805,2.8-4.059,1.612-5.88a3.794,3.794,0,0,0-1.126-1.14l4.762-10.924c.69-1.345,1.51-1.84,2.486-1.506.713.24,1.2,1.348.678,3.28L51.2,55.152a5.569,5.569,0,0,1-2.483,3.1c-1.376.793-5.143,3.476-6.264,4.279l-.048.034" transform="translate(8.1 3.814)" fill="#fff"/>
      </g>
    </g>
  </g>
</svg>
