<svg xmlns="http://www.w3.org/2000/svg" xmlns:xlink="http://www.w3.org/1999/xlink" width="136.269" height="163.918" viewBox="0 0 136.269 163.918">
  <defs>
    <clipPath id="clip-path">
      <path id="Path_33" data-name="Path 33" d="M0,46.374A42.339,42.339,0,1,0,42.338,4.034,42.338,42.338,0,0,0,0,46.374" transform="translate(0 -4.034)" fill="none"/>
    </clipPath>
  </defs>
  <g id="Component_116_1" data-name="Component 116 – 1" transform="translate(0 0)">
    <g id="Group_69" data-name="Group 69" transform="translate(8821.873 4475.83)">
      <path id="Path_23" data-name="Path 23" d="M84.678,46.373a42.339,42.339,0,1,1-42.34-42.34,42.339,42.339,0,0,1,42.34,42.34" transform="translate(-8795.873 -4479.863)" fill="#ed7a9b"/>
      <g id="Group_4" data-name="Group 4" transform="translate(-8795.873 -4475.829)">
        <g id="Group_3" data-name="Group 3" clip-path="url(#clip-path)">
          <path id="Path_24" data-name="Path 24" d="M36.485,64.143a1.916,1.916,0,0,1-1.156-.385c-1.837-1.569-9.595-8.6-13.629-12.77C17.454,46.577,13.31,41.713,13.31,35c0-6.024,5.414-10.927,12.07-10.927a13.043,13.043,0,0,1,11.071,5.381c2.361-3.417,6.314-5.381,11.085-5.381,6.656,0,12.07,4.9,12.07,10.927,0,6.717-4.144,11.58-8.389,15.987-3.938,4.073-11.708,11.084-13.684,12.773a1.611,1.611,0,0,1-1.047.385M25.38,27.3c-4.878,0-8.847,3.455-8.847,7.7,0,5.52,3.543,9.654,7.489,13.75,3.243,3.355,9.515,9.122,12.412,11.691,2.827-2.5,9.088-8.2,12.463-11.693C52.84,44.652,56.381,40.518,56.381,35c0-4.247-3.967-7.7-8.846-7.7-4.641,0-8.116,2.239-9.535,6.143a1.613,1.613,0,0,1-1.515,1.06,1.686,1.686,0,0,1-1.567-1.053c-1.447-3.909-4.923-6.15-9.538-6.15" transform="translate(5.969 4.952)" fill="#fff"/>
          <path id="Path_25" data-name="Path 25" d="M22.14,15.423a1.309,1.309,0,0,0,.316-.039c7.909-1.96,5.417-13.624,5.307-14.12a1.311,1.311,0,1,0-2.559.566c.02.1,2.055,9.661-3.378,11.008a1.311,1.311,0,0,0,.314,2.584" transform="translate(9.341 -5.736)" fill="#fff"/>
          <path id="Path_26" data-name="Path 26" d="M28.742,15.692a1.3,1.3,0,0,0,.5-.1C36.773,12.481,32.581,1.316,32.4.841a1.312,1.312,0,0,0-2.449.941c.036.093,3.484,9.241-1.708,11.385a1.312,1.312,0,0,0,.5,2.525" transform="translate(12.301 -5.843)" fill="#fff"/>
          <path id="Path_27" data-name="Path 27" d="M35.159,15.875a1.286,1.286,0,0,0,.623-.159c7.164-3.879,1.828-14.547,1.6-15a1.312,1.312,0,0,0-2.338,1.191c.045.088,4.413,8.837-.508,11.5a1.312,1.312,0,0,0,.626,2.465" transform="translate(15.178 -5.843)" fill="#fff"/>
          <path id="Path_28" data-name="Path 28" d="M22.9,18.976a3.145,3.145,0,1,0-3.145-3.145A3.145,3.145,0,0,0,22.9,18.976" transform="translate(8.86 -0.153)" fill="#fff"/>
          <path id="Path_29" data-name="Path 29" d="M34.483,15.832a3.145,3.145,0,1,0,3.145-3.145,3.145,3.145,0,0,0-3.145,3.145" transform="translate(15.464 -0.153)" fill="#fff"/>
          <path id="Path_30" data-name="Path 30" d="M23.652,18.6a1.242,1.242,0,0,0-.19,1.745c.139.175,3.5,4.3,8.411,4.437.084,0,.167,0,.251,0,2.979,0,5.814-1.475,8.426-4.387a1.243,1.243,0,0,0-1.85-1.661c-2.171,2.419-4.461,3.569-6.741,3.56-3.75-.094-6.531-3.475-6.56-3.51a1.244,1.244,0,0,0-1.747-.187" transform="translate(10.399 2.372)" fill="#fff"/>
          <path id="Path_31" data-name="Path 31" d="M36.109,60.857,24.189,52.07a6.691,6.691,0,0,0-3.643-1.344L14.909,37.791l-.032-.062c-1.338-2.633-3.423-3.681-5.721-2.92-1.858.63-3.292,2.911-2.3,6.588l4.493,17.552.032.1A8.773,8.773,0,0,0,15.289,63.9c1.343.772,5.01,3.369,6.638,4.529l.565,9.822a.262.262,0,0,0,.262.246H36.023a.268.268,0,0,0,.187-.077.259.259,0,0,0,.075-.188l-.071-17.163a.257.257,0,0,0-.106-.209M16.962,52.671c-1.37,2.1-.656,4.7,1.866,6.78l6.359,4.939a.262.262,0,0,0,.368-.046l1.118-1.438a.261.261,0,0,0-.046-.368l-6.32-4.91c-.575-.478-2.37-2.154-1.379-3.673a1.771,1.771,0,0,1,1.163-.847,3.826,3.826,0,0,1,2.725.865l11.06,8.153.051,14.023H24.643l-.472-8.882a.258.258,0,0,0-.109-.2l-.33-.239-.055-.039c-1.292-.926-5.632-4.018-7.218-4.931a6.4,6.4,0,0,1-2.853-3.55L9.124,40.8c-.6-2.216-.036-3.488.784-3.765,1.137-.384,2.074.184,2.859,1.719l5.494,12.6a4.415,4.415,0,0,0-1.3,1.315" transform="translate(2.929 9.659)" fill="#fff"/>
          <path id="Path_32" data-name="Path 32" d="M58.638,34.81c-2.3-.769-4.384.29-5.727,2.935L47.249,50.728a6.686,6.686,0,0,0-3.662,1.357l-11.9,8.772a.254.254,0,0,0-.107.209L31.511,78.23a.25.25,0,0,0,.075.187.258.258,0,0,0,.185.077H45.043a.262.262,0,0,0,.262-.246l.563-9.822c1.33-.949,5.239-3.724,6.638-4.529a8.754,8.754,0,0,0,3.909-4.844c0-.009.022-.059.026-.07l4.5-17.571c.994-3.686-.439-5.972-2.3-6.6M44.063,66.831l-.33.239a.259.259,0,0,0-.109.2l-.472,8.88H33.868l.054-14.023,11.042-8.139a3.849,3.849,0,0,1,2.74-.879,1.75,1.75,0,0,1,1.165.847c.994,1.524-.805,3.2-1.373,3.669l-6.327,4.915a.257.257,0,0,0-.1.175.262.262,0,0,0,.052.193l1.12,1.44a.263.263,0,0,0,.368.045l6.367-4.944c2.515-2.08,3.226-4.677,1.857-6.776a4.371,4.371,0,0,0-1.3-1.314l5.487-12.587c.8-1.55,1.74-2.121,2.865-1.735.821.277,1.38,1.553.781,3.779L54.2,58.286a6.417,6.417,0,0,1-2.861,3.575c-1.586.914-5.926,4.005-7.218,4.931l-.055.039" transform="translate(14.131 9.658)" fill="#fff"/>
        </g>
      </g>
    </g>
    <g id="Group_6501" data-name="Group 6501" transform="translate(-27 -4.11)">
      <path id="Path_1483" data-name="Path 1483" d="M20.312,16.8a1.97,1.97,0,0,1-.773.134,2.742,2.742,0,0,1-1.643-.536,2.55,2.55,0,0,1-1.109-2.014,2.681,2.681,0,0,1,.571-1.577,32.456,32.456,0,0,0,5.1-10.97A1.909,1.909,0,0,1,24.47.155a4.658,4.658,0,0,1,1.074.169C26.92.693,27.557,1.4,27.557,2.371a2.548,2.548,0,0,1-.134.837,46.881,46.881,0,0,1-2.113,5.939V30.182c0,1.173-.973,1.777-2.548,1.777s-2.449-.6-2.449-1.777Zm7.647,2.919c-1.173,0-1.845-.94-1.845-2.449,0-1.443.672-2.348,1.845-2.348h7.013V12.9H31.381c-2.48,0-3.422-1.441-3.422-3.387v-5.1c0-1.979.942-3.422,3.422-3.422h12.65c2.548,0,3.521,1.443,3.521,3.422v5.1c0,1.946-.973,3.387-3.521,3.387H40.07v2.014h7.582c1.208,0,1.845.872,1.845,2.313,0,1.511-.637,2.484-1.845,2.484h-5a21.982,21.982,0,0,0,5.6,4.762A2.685,2.685,0,0,1,49.7,26.76a3.031,3.031,0,0,1-.5,1.643,2.814,2.814,0,0,1-2.315,1.443,2.969,2.969,0,0,1-1.676-.569,21.415,21.415,0,0,1-5.467-5.737,13.18,13.18,0,0,1,.334,2.75v3.791c0,1.241-.8,1.946-2.581,1.946-1.746,0-2.517-.705-2.517-1.946V26.29a9.573,9.573,0,0,1,.369-2.717,19.51,19.51,0,0,1-5.166,5.937,2.793,2.793,0,0,1-1.711.6,2.763,2.763,0,0,1-2.146-1.173,2.876,2.876,0,0,1-.606-1.711,2.55,2.55,0,0,1,1.309-2.181,20.8,20.8,0,0,0,5.669-5.333ZM42.386,6.463c0-.672-.169-.705-.738-.705H33.7c-.571,0-.738.033-.738.705V7.57c0,.637.167.672.738.672h7.951c.569,0,.738-.035.738-.672Z" transform="translate(42.817 102.085)" fill="#ed7a9b"/>
      <path id="Path_1484" data-name="Path 1484" d="M62.057,6.776c1.274.938,2.517,1.911,3.523,2.785a2.057,2.057,0,0,1,.771,1.61,2.178,2.178,0,0,1-.637,1.542,2.657,2.657,0,0,1-1.845.839,2.081,2.081,0,0,1-1.476-.6c-.369-.336-.738-.705-1.142-1.039-8.62.569-15.6.771-22.139.8-1.208,0-1.812-.771-1.845-2.179v-.1c0-1.206.637-2.012,1.777-2.012,1.377,0,2.752.033,4.092.033l.3-.4c.3-.4.606-.839.872-1.274H37.835c-1.072,0-1.643-.839-1.643-2.282,0-1.375.571-2.214,1.643-2.214H48.974V1.542C48.974.4,49.745,0,51.658,0c1.946,0,2.717.4,2.717,1.542V2.28H66.151c1.072,0,1.643.806,1.643,2.214s-.571,2.282-1.643,2.282ZM44.88,30.6c0,1.206-.973,1.676-2.583,1.676S39.68,31.8,39.68,30.46V16.672c0-2.548,1.309-3.253,4.463-3.253H59.607c3.152,0,4.461.705,4.461,3.253V27.71c0,3.086-1.375,4.261-4.8,4.261a16.547,16.547,0,0,1-3.824-.336,1.829,1.829,0,0,1-1.309-1.913,1.933,1.933,0,0,1,.033-.435,1.741,1.741,0,0,1,1.709-1.678.9.9,0,0,1,.3.035,14.089,14.089,0,0,0,1.946.167c.668,0,.837-.1.837-.771v-.4H44.88ZM58.97,17.946c0-.569-.068-.67-.738-.67H45.618c-.67,0-.738.1-.738.67v.472H58.97ZM44.88,23.114H58.97V21.941H44.88ZM50.013,6.776A14.543,14.543,0,0,1,48.8,8.42c2.651-.033,5.3-.134,7.951-.235-.637-.5-1.241-.938-1.878-1.408Z" transform="translate(61.102 101.939)" fill="#ed7a9b"/>
      <path id="Path_1485" data-name="Path 1485" d="M11.985,25.907a2.987,2.987,0,0,1,2.647.932,2.9,2.9,0,0,1,.579,1.938,6.084,6.084,0,0,1-.056.8A13.947,13.947,0,0,1,4.735,41.1a2.9,2.9,0,0,1-.672.093,1.555,1.555,0,0,1-1.6-1.119,2.457,2.457,0,0,1-.113-.707A1.524,1.524,0,0,1,3.56,37.819c4.343-1.193,7.363-4.25,7.9-7.812a1.092,1.092,0,0,0,.019-.241c0-.412-.2-.559-.707-.559H1.305C.5,29.207,0,28.48,0,27.548s.484-1.641,1.305-1.641Z" transform="translate(27 126.35)" fill="#ed7a9b"/>
      <path id="Path_1486" data-name="Path 1486" d="M16.927,33.976a6.208,6.208,0,0,1-1.119,1.734,13.917,13.917,0,0,1-4.419,3.335,1.92,1.92,0,0,1-.689.15A1.39,1.39,0,0,1,9.47,38.43a1.8,1.8,0,0,1-.188-.8,1.308,1.308,0,0,1,.711-1.249,12.2,12.2,0,0,0,5.05-4.269H10.513c-.67,0-1.08-.577-1.08-1.325s.41-1.36,1.08-1.36h6.209V28.253c0-.763.614-1.156,1.416-1.156.913,0,1.433.429,1.453,1.136l.019,1.194h1.938c.653,0,1.045.616,1.045,1.36s-.392,1.325-1.045,1.325H19.63l.074,7.307c0,.765-.542,1.138-1.4,1.138-.9,0-1.492-.429-1.492-1.119L16.8,35.952a12.188,12.188,0,0,1,.169-1.975Z" transform="translate(35.746 127.471)" fill="#ed7a9b"/>
      <path id="Path_1487" data-name="Path 1487" d="M32.875,37.965c0,1.921-1.025,2.74-2.909,2.74H20.571c-1.882,0-2.908-.82-2.908-2.74V28.57c0-1.919,1.025-2.74,2.908-2.74h9.395c1.884,0,2.909.822,2.909,2.74Zm-3.449-8.146c0-.6-.148-.8-.763-.8H21.876c-.614,0-.763.206-.763.8v6.9c0,.6.15.8.763.8h6.786c.616,0,.763-.206.763-.8Z" transform="translate(43.643 126.277)" fill="#ed7a9b"/>
      <path id="Path_1488" data-name="Path 1488" d="M27.7,32.272c-.932,0-1.416-.709-1.416-1.734s.484-1.732,1.416-1.732H40.9c.93,0,1.416.709,1.416,1.732s-.486,1.734-1.416,1.734Z" transform="translate(51.767 129.08)" fill="#ed7a9b"/>
      <path id="Path_1489" data-name="Path 1489" d="M35.191,31.735A1.861,1.861,0,0,1,35.4,30.9a1.543,1.543,0,0,1,1.4-.969,1.473,1.473,0,0,1,.557.113A25.555,25.555,0,0,1,41.1,31.884a1.4,1.4,0,0,1,.765,1.249,2.256,2.256,0,0,1-.243.93,1.608,1.608,0,0,1-1.435.9,1.65,1.65,0,0,1-.9-.26A36.337,36.337,0,0,0,36,33a1.336,1.336,0,0,1-.8-1.266M46.973,38.3a15.639,15.639,0,0,1-9.358,3.393H37.5a1.553,1.553,0,0,1-1.678-1.472,1.4,1.4,0,0,1-.017-.26,1.435,1.435,0,0,1,1.416-1.548,12.874,12.874,0,0,0,7.6-2.7,11.516,11.516,0,0,0,3.263-6,1.482,1.482,0,0,1,1.548-1.249,2.137,2.137,0,0,1,.466.054,1.392,1.392,0,0,1,1.249,1.435,2.648,2.648,0,0,1-.056.522A13.924,13.924,0,0,1,46.973,38.3M42.593,27.13a1.432,1.432,0,0,1,.82,1.268,2.1,2.1,0,0,1-.26.932,1.573,1.573,0,0,1-1.4.913,1.6,1.6,0,0,1-.8-.223,26.256,26.256,0,0,0-3.337-1.659,1.345,1.345,0,0,1-.857-1.288,1.708,1.708,0,0,1,.186-.783,1.547,1.547,0,0,1,1.416-.95,1.8,1.8,0,0,1,.6.111,19.87,19.87,0,0,1,3.634,1.678" transform="translate(60.158 125.816)" fill="#ed7a9b"/>
      <path id="Path_1490" data-name="Path 1490" d="M55.607,25.8H55.7a2.227,2.227,0,0,1,2.125.969,1.972,1.972,0,0,1,.3,1.119,5.268,5.268,0,0,1-.282,1.548,16.661,16.661,0,0,1-2.57,4.826,41.752,41.752,0,0,1,4.343,3.8,1.7,1.7,0,0,1,.486,1.175,2.023,2.023,0,0,1-.524,1.286,1.886,1.886,0,0,1-1.377.616,1.417,1.417,0,0,1-1.084-.466,34.01,34.01,0,0,0-4.063-3.9,18.818,18.818,0,0,1-6.823,4.455,1.871,1.871,0,0,1-.689.13A1.522,1.522,0,0,1,44.084,40.3a2.248,2.248,0,0,1-.167-.822,1.453,1.453,0,0,1,.915-1.379c4.23-1.732,8.054-5.015,9.3-8.443a1,1,0,0,0,.06-.3c0-.223-.132-.317-.429-.317l-7.4.113c-.705.017-1.266-.653-1.266-1.641,0-.969.577-1.622,1.286-1.622Z" transform="translate(68.38 126.25)" fill="#ed7a9b"/>
      <path id="Path_1491" data-name="Path 1491" d="M63.287,33.58c-.13,3.933-2.034,6.86-5.631,8.109a2.857,2.857,0,0,1-.913.169,1.493,1.493,0,0,1-1.455-.878,2.064,2.064,0,0,1-.2-.857,1.5,1.5,0,0,1,1.06-1.472A5.128,5.128,0,0,0,59.8,33.58H53.856c-.822,0-1.251-.616-1.251-1.511s.429-1.509,1.251-1.509H68.077c.822,0,1.251.616,1.251,1.509S68.9,33.58,68.077,33.58Zm-7.773-4.828c-.82,0-1.251-.633-1.251-1.529,0-.95.431-1.546,1.251-1.546H66.4c.818,0,1.247.651,1.247,1.546s-.429,1.529-1.247,1.529Z" transform="translate(76.565 126.133)" fill="#ed7a9b"/>
      <path id="Path_1492" data-name="Path 1492" d="M72.04,32.925a1.539,1.539,0,0,1-.186-.728,1.328,1.328,0,0,1,.9-1.286,2.188,2.188,0,0,1,.726-.13,1.69,1.69,0,0,1,1.472.913,48.958,48.958,0,0,1,3.358,7.1,2.773,2.773,0,0,1,.185.989,1.54,1.54,0,0,1-1.062,1.548,2.357,2.357,0,0,1-.763.148,1.446,1.446,0,0,1-1.344-.8c-.111-.262-.223-.542-.373-.9a76.272,76.272,0,0,1-11.873,1.529h-.132a1.528,1.528,0,0,1-1.622-1.548v-.2c0-.915.468-1.548,1.212-1.585.28,0,.839-.019,1.025-.037a72.616,72.616,0,0,0,3.859-11.409,1.475,1.475,0,0,1,1.565-1.268c.15,0,.319.019.486.037a1.54,1.54,0,0,1,1.4,1.548,2.146,2.146,0,0,1-.056.466,64.422,64.422,0,0,1-3.58,10.42,61.993,61.993,0,0,0,6.635-.839,39.717,39.717,0,0,0-1.826-3.97" transform="translate(84.778 125.743)" fill="#ed7a9b"/>
      <path id="Path_1493" data-name="Path 1493" d="M3.238,25.387a9.738,9.738,0,0,0,.076,1.635H1.294a9.593,9.593,0,0,0,.084-1.606V20.549A9.471,9.471,0,0,0,1.3,19.178c.385.017.649.027,1.371.027H5.388a11.559,11.559,0,0,0,1.581-.064v1.785A12.418,12.418,0,0,0,5.4,20.86H3.238V22.4H5a12.183,12.183,0,0,0,1.505-.066v1.738A12.394,12.394,0,0,0,5,24.006H3.238Z" transform="translate(28.22 119.974)" fill="#ed7a9b"/>
      <path id="Path_1494" data-name="Path 1494" d="M13.342,23.126c0,2.482-1.511,4.125-3.8,4.125-2.3,0-3.785-1.606-3.785-4.1s1.484-4.067,3.8-4.067,3.785,1.577,3.785,4.038m-1.954.019c0-1.523-.7-2.441-1.832-2.441s-1.851.928-1.851,2.441c0,1.532.705,2.48,1.851,2.48s1.832-.94,1.832-2.48" transform="translate(32.428 119.924)" fill="#ed7a9b"/>
      <path id="Path_1495" data-name="Path 1495" d="M12.8,26.991c-.647,0-1.031.01-1.391.029a8.459,8.459,0,0,0,.076-1.373v-4.96a11.36,11.36,0,0,0-.076-1.511h2.049a9.3,9.3,0,0,0-.074,1.484v4.659h2.272a11.014,11.014,0,0,0,1.558-.066v1.8a12.261,12.261,0,0,0-1.558-.066Z" transform="translate(37.749 120.006)" fill="#ed7a9b"/>
      <path id="Path_1496" data-name="Path 1496" d="M17.377,26.991c-.647,0-1.031.01-1.391.029a8.459,8.459,0,0,0,.076-1.373v-4.96a11.36,11.36,0,0,0-.076-1.511h2.049a9.3,9.3,0,0,0-.074,1.484v4.659h2.272a11.014,11.014,0,0,0,1.558-.066v1.8a12.261,12.261,0,0,0-1.558-.066Z" transform="translate(42.063 120.006)" fill="#ed7a9b"/>
      <path id="Path_1497" data-name="Path 1497" d="M28.026,23.126c0,2.482-1.513,4.125-3.8,4.125-2.3,0-3.785-1.606-3.785-4.1s1.482-4.067,3.8-4.067,3.785,1.577,3.785,4.038m-1.956.019c0-1.523-.693-2.441-1.83-2.441s-1.853.928-1.853,2.441c0,1.532.705,2.48,1.853,2.48s1.83-.94,1.83-2.48" transform="translate(46.264 119.924)" fill="#ed7a9b"/>
      <path id="Path_1498" data-name="Path 1498" d="M32.149,26.991a9.022,9.022,0,0,0-.2-1.006l-.715-2.76a14.408,14.408,0,0,1-.26-1.42c-.058.385-.169.977-.284,1.42L30,25.994a6.885,6.885,0,0,0-.208,1h-1.87c-.047-.272-.1-.47-.235-1.014l-1.5-5.638c-.134-.478-.264-.911-.359-1.163h2.144a6.18,6.18,0,0,0,.13,1.033l.6,2.855c.027.142.093.583.206,1.325.14-.789.208-1.126.264-1.325l.752-2.911a8.819,8.819,0,0,0,.206-.977H31.8a7.437,7.437,0,0,0,.218.948l.759,2.894c.074.3.14.612.262,1.371.019-.179.019-.179.076-.573.029-.206.1-.658.13-.808l.592-2.8a5.128,5.128,0,0,0,.142-1.033h2.133c-.093.252-.225.693-.348,1.163l-1.5,5.629a7.639,7.639,0,0,0-.233,1.024Z" transform="translate(51.333 120.006)" fill="#ed7a9b"/>
      <path id="Path_1499" data-name="Path 1499" d="M40.3,24.536a1.263,1.263,0,0,0,.245.7,1.372,1.372,0,0,0,1.1.441c.723,0,1.156-.319,1.156-.845a.7.7,0,0,0-.394-.656,7.445,7.445,0,0,0-1.41-.387,3.662,3.662,0,0,1-1.513-.544,2.115,2.115,0,0,1-.911-1.8c0-1.447,1.165-2.358,3.016-2.358a3.061,3.061,0,0,1,2.612,1.07,2.6,2.6,0,0,1,.468,1.128l-1.991.216c-.113-.61-.451-.864-1.165-.864-.573,0-1,.309-1,.742a.649.649,0,0,0,.443.6,5.756,5.756,0,0,0,1.3.309,4.556,4.556,0,0,1,1.521.536,2.1,2.1,0,0,1,1.016,1.917,2.357,2.357,0,0,1-.658,1.729,3.442,3.442,0,0,1-2.472.8,4.453,4.453,0,0,1-2.094-.46,2.208,2.208,0,0,1-1.014-1.2,3.464,3.464,0,0,1-.208-.874Z" transform="translate(63.127 119.915)" fill="#ed7a9b"/>
      <path id="Path_1500" data-name="Path 1500" d="M47.963,25.6a11.529,11.529,0,0,0,.076,1.391H45.99a12.053,12.053,0,0,0,.076-1.391V23.863l-2.16-3.55c-.169-.291-.375-.6-.754-1.138h2.379a4.48,4.48,0,0,0,.441.987l1.043,1.907,1.043-1.9a4.2,4.2,0,0,0,.431-1h2.377c-.274.4-.629.93-.752,1.138l-2.152,3.55Z" transform="translate(67.659 120.005)" fill="#ed7a9b"/>
      <path id="Path_1501" data-name="Path 1501" d="M50.553,24.536a1.219,1.219,0,0,0,.243.7,1.365,1.365,0,0,0,1.1.441c.724,0,1.156-.319,1.156-.845a.7.7,0,0,0-.394-.656,7.445,7.445,0,0,0-1.41-.387,3.639,3.639,0,0,1-1.511-.544,2.116,2.116,0,0,1-.913-1.8c0-1.447,1.167-2.358,3.016-2.358a3.065,3.065,0,0,1,2.614,1.07,2.647,2.647,0,0,1,.468,1.128l-1.991.216c-.115-.61-.453-.864-1.167-.864-.573,0-1,.309-1,.742a.652.652,0,0,0,.443.6,5.756,5.756,0,0,0,1.3.309,4.556,4.556,0,0,1,1.521.536,2.1,2.1,0,0,1,1.016,1.917,2.349,2.349,0,0,1-.658,1.729,3.44,3.44,0,0,1-2.471.8,4.467,4.467,0,0,1-2.1-.46A2.216,2.216,0,0,1,48.8,25.6a3.478,3.478,0,0,1-.206-.874Z" transform="translate(72.789 119.915)" fill="#ed7a9b"/>
      <path id="Path_1502" data-name="Path 1502" d="M57.9,25.6a10.655,10.655,0,0,0,.076,1.418H55.9a10.4,10.4,0,0,0,.076-1.418V20.869H54.866a12.755,12.755,0,0,0-1.42.066V19.14a13.063,13.063,0,0,0,1.4.066h4.116a12.476,12.476,0,0,0,1.464-.066v1.795a12.152,12.152,0,0,0-1.464-.066H57.9Z" transform="translate(77.358 119.974)" fill="#ed7a9b"/>
      <path id="Path_1503" data-name="Path 1503" d="M64.565,27.088a12.154,12.154,0,0,0-1.552-.066H60.055c-.713,0-.977.01-1.381.029a8.662,8.662,0,0,0,.076-1.373V20.55a10,10,0,0,0-.076-1.373c.385.019.649.029,1.381.029h3a11.567,11.567,0,0,0,1.4-.066V20.9a12.041,12.041,0,0,0-1.4-.064H60.608v1.381h2.03a11.248,11.248,0,0,0,1.408-.066v1.738a11.636,11.636,0,0,0-1.408-.066h-2.03V25.4h2.424a12.877,12.877,0,0,0,1.532-.064Z" transform="translate(82.284 119.974)" fill="#ed7a9b"/>
      <path id="Path_1504" data-name="Path 1504" d="M66.88,26.991a7.262,7.262,0,0,0-.4-1.391l-.864-2.5c-.01-.049-.291-.923-.319-1-.1-.338-.1-.338-.152-.47.056.592.093,1.362.093,1.861v2.037a10.051,10.051,0,0,0,.076,1.457H63.46a10.112,10.112,0,0,0,.076-1.457V20.639a12.566,12.566,0,0,0-.076-1.464h2.482A6.859,6.859,0,0,0,66.3,20.5l1.41,4.048,1.4-4.048a6.4,6.4,0,0,0,.348-1.325h2.49a10.872,10.872,0,0,0-.076,1.464v4.894a9.325,9.325,0,0,0,.076,1.457H70.093a9.947,9.947,0,0,0,.076-1.457V23.487c0-.225.027-.93.047-1.222.027-.5.027-.5.037-.639-.206.732-.3,1.072-.421,1.41L68.92,25.61a8.439,8.439,0,0,0-.4,1.381Z" transform="translate(86.794 120.006)" fill="#ed7a9b"/>
    </g>
  </g>
</svg>
