<svg id="Component_118_1" data-name="Component 118 – 1" xmlns="http://www.w3.org/2000/svg" xmlns:xlink="http://www.w3.org/1999/xlink" width="208.004" height="41.062" viewBox="0 0 208.004 41.062">
  <defs>
    <clipPath id="clip-path">
      <path id="Path_33" data-name="Path 33" d="M0,22.53a18.5,18.5,0,1,0,18.5-18.5A18.5,18.5,0,0,0,0,22.53" transform="translate(0 -4.034)" fill="none"/>
    </clipPath>
  </defs>
  <path id="Path_1" data-name="Path 1" d="M70.415,26.185a1.6,1.6,0,0,1-.629.109,2.243,2.243,0,0,1-1.341-.438,2.075,2.075,0,0,1-.9-1.641,2.188,2.188,0,0,1,.465-1.286,26.46,26.46,0,0,0,4.159-8.948,1.557,1.557,0,0,1,1.642-1.368,3.847,3.847,0,0,1,.876.137c1.121.3,1.641.876,1.641,1.669a2.09,2.09,0,0,1-.109.684,38.294,38.294,0,0,1-1.724,4.843V37.1c0,.957-.793,1.45-2.08,1.45s-2-.493-2-1.45Zm6.239,2.38c-.957,0-1.5-.766-1.5-2,0-1.176.547-1.915,1.5-1.915h5.719V23.011H79.445a2.489,2.489,0,0,1-2.791-2.764V16.088A2.5,2.5,0,0,1,79.445,13.3H89.761a2.534,2.534,0,0,1,2.873,2.791v4.159a2.527,2.527,0,0,1-2.873,2.764H86.532v1.641h6.184c.985,0,1.5.711,1.5,1.888,0,1.231-.52,2.025-1.5,2.025H88.639a17.928,17.928,0,0,0,4.569,3.886,2.187,2.187,0,0,1,1.177,1.86,2.482,2.482,0,0,1-.411,1.341,2.3,2.3,0,0,1-1.888,1.177,2.421,2.421,0,0,1-1.368-.466,17.457,17.457,0,0,1-4.46-4.679,10.672,10.672,0,0,1,.274,2.244v3.092c0,1.012-.657,1.588-2.107,1.588-1.423,0-2.052-.575-2.052-1.588V33.929a7.88,7.88,0,0,1,.3-2.217,15.9,15.9,0,0,1-4.214,4.843,2.286,2.286,0,0,1-1.4.492,2.257,2.257,0,0,1-1.752-.957,2.345,2.345,0,0,1-.492-1.4,2.08,2.08,0,0,1,1.067-1.779,16.95,16.95,0,0,0,4.624-4.351ZM88.42,17.757c0-.547-.137-.575-.6-.575H81.333c-.466,0-.6.027-.6.575v.9c0,.52.136.547.6.547h6.485c.466,0,.6-.027.6-.547Z" transform="translate(-24.804 -4.632)" fill="#fff"/>
  <path id="Path_2" data-name="Path 2" d="M130.71,17.751c1.04.766,2.053,1.56,2.873,2.271a1.679,1.679,0,0,1,.63,1.314,1.784,1.784,0,0,1-.52,1.259,2.166,2.166,0,0,1-1.505.684,1.7,1.7,0,0,1-1.2-.492c-.3-.274-.6-.575-.931-.849-7.032.465-12.724.63-18.059.657-.985,0-1.478-.63-1.505-1.779v-.082c0-.985.52-1.641,1.45-1.641,1.122,0,2.244.027,3.338.027l.246-.328c.247-.328.493-.684.711-1.04h-5.28c-.876,0-1.341-.684-1.341-1.861,0-1.122.465-1.806,1.341-1.806h9.085v-.6c0-.93.629-1.259,2.189-1.259,1.587,0,2.217.328,2.217,1.259v.6h9.6c.876,0,1.341.657,1.341,1.806s-.465,1.861-1.341,1.861ZM116.7,37.179c0,.985-.793,1.368-2.107,1.368s-2.134-.383-2.134-1.478V25.823c0-2.08,1.067-2.654,3.64-2.654h12.614c2.572,0,3.639.575,3.639,2.654v9c0,2.517-1.122,3.475-3.913,3.475a13.515,13.515,0,0,1-3.12-.274,1.491,1.491,0,0,1-1.067-1.559,1.571,1.571,0,0,1,.027-.356,1.421,1.421,0,0,1,1.4-1.368.765.765,0,0,1,.247.027,11.278,11.278,0,0,0,1.587.137c.547,0,.684-.082.684-.629V33.95H116.7Zm11.492-10.316c0-.465-.055-.547-.6-.547H117.3c-.547,0-.6.082-.6.547v.383h11.492ZM116.7,31.077h11.492v-.958H116.7Zm4.186-13.326a12.145,12.145,0,0,1-.985,1.341c2.162-.027,4.324-.109,6.485-.192-.52-.411-1.012-.766-1.532-1.149Z" transform="translate(-40.254 -4.489)" fill="#fff"/>
  <path id="Path_3" data-name="Path 3" d="M161.416,31.03a2.438,2.438,0,0,1,2.158.76,2.36,2.36,0,0,1,.471,1.58,4.886,4.886,0,0,1-.046.654,11.371,11.371,0,0,1-8.5,9.392,2.366,2.366,0,0,1-.547.076,1.268,1.268,0,0,1-1.307-.912,1.987,1.987,0,0,1-.091-.578,1.242,1.242,0,0,1,.988-1.261c3.541-.973,6-3.465,6.444-6.368a.94.94,0,0,0,.015-.2c0-.334-.168-.456-.578-.456h-7.72c-.654,0-1.064-.593-1.064-1.353s.395-1.337,1.064-1.337Z" transform="translate(-55.688 -11.395)" fill="#fff"/>
  <path id="Path_4" data-name="Path 4" d="M181.318,39.617a5,5,0,0,1-.912,1.413,11.344,11.344,0,0,1-3.6,2.721,1.563,1.563,0,0,1-.563.121,1.136,1.136,0,0,1-1-.623,1.468,1.468,0,0,1-.152-.653,1.068,1.068,0,0,1,.577-1.019,9.956,9.956,0,0,0,4.119-3.48H176.09c-.547,0-.881-.471-.881-1.079s.335-1.109.881-1.109h5.061v-.958c0-.623.5-.942,1.155-.942.745,0,1.171.349,1.186.927l.015.973h1.581c.532,0,.851.5.851,1.109s-.319,1.079-.851,1.079h-1.565l.061,5.958c0,.623-.441.927-1.14.927-.729,0-1.216-.349-1.216-.912l-.015-2.842a10.035,10.035,0,0,1,.137-1.611Z" transform="translate(-64.298 -12.489)" fill="#fff"/>
  <path id="Path_5" data-name="Path 5" d="M208.675,40.731c0,1.565-.836,2.234-2.371,2.234h-7.66c-1.534,0-2.37-.669-2.37-2.234v-7.66c0-1.565.836-2.234,2.37-2.234h7.66c1.535,0,2.371.669,2.371,2.234Zm-2.811-6.642c0-.487-.121-.654-.623-.654h-5.532c-.5,0-.623.167-.623.654v5.623c0,.486.121.653.623.653h5.532c.5,0,.623-.167.623-.653Z" transform="translate(-72.078 -11.324)" fill="#fff"/>
  <path id="Path_6" data-name="Path 6" d="M219.216,41.11c-.76,0-1.155-.578-1.155-1.413s.395-1.414,1.155-1.414h10.76c.761,0,1.155.577,1.155,1.414s-.395,1.413-1.155,1.413Z" transform="translate(-80.079 -14.059)" fill="#fff"/>
  <path id="Path_7" data-name="Path 7" d="M240.567,34.825a1.5,1.5,0,0,1,.167-.684,1.258,1.258,0,0,1,1.14-.79,1.219,1.219,0,0,1,.456.091,21.021,21.021,0,0,1,3.055,1.5,1.141,1.141,0,0,1,.623,1.018,1.827,1.827,0,0,1-.2.76,1.309,1.309,0,0,1-1.17.729,1.345,1.345,0,0,1-.73-.213,29.484,29.484,0,0,0-2.69-1.383,1.089,1.089,0,0,1-.654-1.033m9.6,5.349a12.757,12.757,0,0,1-7.629,2.766h-.091a1.266,1.266,0,0,1-1.367-1.2,1.075,1.075,0,0,1-.015-.213,1.17,1.17,0,0,1,1.155-1.261,10.5,10.5,0,0,0,6.2-2.2,9.391,9.391,0,0,0,2.66-4.894,1.208,1.208,0,0,1,1.262-1.017,1.72,1.72,0,0,1,.38.045,1.135,1.135,0,0,1,1.018,1.171,2.135,2.135,0,0,1-.046.425,11.364,11.364,0,0,1-3.526,6.383m-3.571-9.1a1.168,1.168,0,0,1,.669,1.033,1.7,1.7,0,0,1-.213.76,1.25,1.25,0,0,1-1.793.563,21.715,21.715,0,0,0-2.721-1.353,1.1,1.1,0,0,1-.7-1.048,1.409,1.409,0,0,1,.152-.638,1.263,1.263,0,0,1,1.155-.775,1.448,1.448,0,0,1,.487.092,16.207,16.207,0,0,1,2.963,1.367" transform="translate(-88.345 -10.874)" fill="#fff"/>
  <path id="Path_8" data-name="Path 8" d="M272.147,30.766h.076a1.817,1.817,0,0,1,1.733.79,1.619,1.619,0,0,1,.243.911,4.275,4.275,0,0,1-.228,1.262,13.572,13.572,0,0,1-2.1,3.936,33.872,33.872,0,0,1,3.541,3.1,1.386,1.386,0,0,1,.395.957,1.659,1.659,0,0,1-.425,1.049,1.54,1.54,0,0,1-1.125.5,1.153,1.153,0,0,1-.881-.38,27.567,27.567,0,0,0-3.313-3.176,15.335,15.335,0,0,1-5.562,3.632,1.53,1.53,0,0,1-.562.106,1.239,1.239,0,0,1-1.186-.866,1.813,1.813,0,0,1-.137-.669,1.18,1.18,0,0,1,.745-1.124c3.45-1.413,6.566-4.088,7.584-6.885a.835.835,0,0,0,.046-.243c0-.182-.106-.258-.349-.258l-6.034.091c-.577.015-1.033-.532-1.033-1.338,0-.79.471-1.322,1.048-1.322Z" transform="translate(-96.441 -11.298)" fill="#fff"/>
  <path id="Path_9" data-name="Path 9" d="M293.281,36.9c-.106,3.206-1.657,5.592-4.59,6.611a2.354,2.354,0,0,1-.745.137,1.215,1.215,0,0,1-1.185-.714,1.673,1.673,0,0,1-.167-.7,1.224,1.224,0,0,1,.866-1.2,4.179,4.179,0,0,0,2.979-4.133h-4.848c-.668,0-1.018-.5-1.018-1.231s.35-1.231,1.018-1.231h11.6c.669,0,1.019.5,1.019,1.231s-.349,1.231-1.019,1.231Zm-6.337-3.936c-.669,0-1.018-.516-1.018-1.246,0-.775.349-1.262,1.018-1.262h8.875c.669,0,1.018.532,1.018,1.262s-.349,1.246-1.018,1.246Z" transform="translate(-104.504 -11.183)" fill="#fff"/>
  <path id="Path_10" data-name="Path 10" d="M315.338,35.667a1.23,1.23,0,0,1-.152-.593,1.081,1.081,0,0,1,.73-1.049,1.751,1.751,0,0,1,.593-.106,1.38,1.38,0,0,1,1.2.745,39.713,39.713,0,0,1,2.735,5.79,2.223,2.223,0,0,1,.152.806,1.253,1.253,0,0,1-.866,1.262,1.884,1.884,0,0,1-.623.121,1.176,1.176,0,0,1-1.095-.654c-.091-.213-.182-.44-.3-.73a62.063,62.063,0,0,1-9.681,1.247h-.106a1.245,1.245,0,0,1-1.323-1.262v-.167c0-.744.38-1.261.988-1.291.228,0,.684-.015.836-.031a59.357,59.357,0,0,0,3.146-9.3,1.2,1.2,0,0,1,1.277-1.033,3.752,3.752,0,0,1,.395.03,1.253,1.253,0,0,1,1.14,1.261,1.728,1.728,0,0,1-.046.38,52.53,52.53,0,0,1-2.918,8.495,50.593,50.593,0,0,0,5.41-.683,32.666,32.666,0,0,0-1.49-3.237" transform="translate(-112.593 -10.804)" fill="#fff"/>
  <path id="Path_11" data-name="Path 11" d="M172.68,17.933a6.344,6.344,0,0,0,.049,1.058h-1.308a6.214,6.214,0,0,0,.055-1.04V14.8a6.175,6.175,0,0,0-.049-.888c.249.012.42.018.888.018h1.758a7.178,7.178,0,0,0,1.022-.042v1.156A8.2,8.2,0,0,0,174.079,15h-1.4v1h1.143a7.7,7.7,0,0,0,.973-.043v1.126a7.974,7.974,0,0,0-.973-.042H172.68Z" transform="translate(-62.951 -5.1)" fill="#fff"/>
  <path id="Path_12" data-name="Path 12" d="M185.391,16.4a2.424,2.424,0,0,1-2.458,2.67,2.4,2.4,0,0,1-2.451-2.652,2.46,2.46,0,1,1,4.909-.018m-1.266.012c0-.985-.45-1.582-1.186-1.582s-1.2.6-1.2,1.582.456,1.606,1.2,1.606,1.186-.608,1.186-1.606" transform="translate(-66.278 -5.061)" fill="#fff"/>
  <path id="Path_13" data-name="Path 13" d="M192.788,19.017c-.42,0-.669.006-.9.018a5.527,5.527,0,0,0,.048-.888V14.936a7.456,7.456,0,0,0-.048-.98h1.326a6.048,6.048,0,0,0-.049.961v3.017h1.472a7.252,7.252,0,0,0,1.011-.042v1.167a8.082,8.082,0,0,0-1.011-.042Z" transform="translate(-70.468 -5.125)" fill="#fff"/>
  <path id="Path_14" data-name="Path 14" d="M202.069,19.017c-.42,0-.669.006-.9.018a5.527,5.527,0,0,0,.048-.888V14.936a7.456,7.456,0,0,0-.048-.98h1.326a6.052,6.052,0,0,0-.049.961v3.017h1.472a7.252,7.252,0,0,0,1.011-.042v1.167a8.082,8.082,0,0,0-1.011-.042Z" transform="translate(-73.876 -5.125)" fill="#fff"/>
  <path id="Path_15" data-name="Path 15" d="M215.119,16.4a2.424,2.424,0,0,1-2.458,2.67,2.4,2.4,0,0,1-2.451-2.652,2.46,2.46,0,1,1,4.909-.018m-1.266.012c0-.985-.45-1.582-1.186-1.582s-1.2.6-1.2,1.582.456,1.606,1.2,1.606,1.186-.608,1.186-1.606" transform="translate(-77.195 -5.061)" fill="#fff"/>
  <path id="Path_16" data-name="Path 16" d="M225.18,19.017a5.335,5.335,0,0,0-.128-.65l-.462-1.788c-.061-.237-.109-.518-.17-.919-.037.249-.11.632-.183.919l-.45,1.794a4.553,4.553,0,0,0-.134.645h-1.21c-.03-.177-.061-.3-.152-.657l-.973-3.65c-.085-.31-.17-.59-.231-.754h1.387a3.986,3.986,0,0,0,.085.669l.389,1.849c.018.091.061.377.134.857.091-.511.134-.73.17-.857l.487-1.886a5.377,5.377,0,0,0,.134-.633h1.083a5.091,5.091,0,0,0,.14.614l.493,1.874c.048.194.091.4.17.888.012-.115.012-.115.048-.371.018-.134.061-.426.085-.523l.383-1.812a3.342,3.342,0,0,0,.092-.669h1.381c-.061.165-.146.45-.225.754l-.973,3.643a5.388,5.388,0,0,0-.152.663Z" transform="translate(-81.189 -5.125)" fill="#fff"/>
  <path id="Path_17" data-name="Path 17" d="M247.776,17.3a.807.807,0,0,0,.158.45.888.888,0,0,0,.712.286c.468,0,.748-.207.748-.547a.458.458,0,0,0-.256-.426,4.86,4.86,0,0,0-.912-.249,2.356,2.356,0,0,1-.979-.353,1.369,1.369,0,0,1-.59-1.167c0-.937.754-1.527,1.953-1.527a1.981,1.981,0,0,1,1.691.694,1.694,1.694,0,0,1,.3.73l-1.29.14c-.073-.395-.292-.559-.754-.559-.371,0-.645.2-.645.48a.418.418,0,0,0,.286.389,3.6,3.6,0,0,0,.84.2,2.927,2.927,0,0,1,.985.347,1.358,1.358,0,0,1,.657,1.241,1.522,1.522,0,0,1-.426,1.119,2.227,2.227,0,0,1-1.6.517,2.89,2.89,0,0,1-1.357-.3,1.442,1.442,0,0,1-.657-.779,2.292,2.292,0,0,1-.134-.566Z" transform="translate(-90.526 -5.055)" fill="#fff"/>
  <path id="Path_18" data-name="Path 18" d="M259.367,18.116a7.383,7.383,0,0,0,.049.9H258.09a8.033,8.033,0,0,0,.049-.9V16.99l-1.4-2.3c-.109-.188-.244-.389-.487-.736h1.539a2.948,2.948,0,0,0,.286.639l.675,1.235.675-1.229a2.727,2.727,0,0,0,.28-.645h1.539c-.177.256-.407.6-.487.736l-1.393,2.3Z" transform="translate(-94.104 -5.125)" fill="#fff"/>
  <path id="Path_19" data-name="Path 19" d="M268.52,17.3a.806.806,0,0,0,.158.45.888.888,0,0,0,.712.286c.468,0,.748-.207.748-.547a.458.458,0,0,0-.256-.426,4.86,4.86,0,0,0-.912-.249,2.356,2.356,0,0,1-.979-.353,1.369,1.369,0,0,1-.59-1.167c0-.937.754-1.527,1.953-1.527a1.981,1.981,0,0,1,1.691.694,1.694,1.694,0,0,1,.3.73l-1.29.14c-.073-.395-.292-.559-.754-.559-.371,0-.645.2-.645.48a.418.418,0,0,0,.286.389,3.6,3.6,0,0,0,.84.2,2.927,2.927,0,0,1,.985.347,1.358,1.358,0,0,1,.657,1.241A1.522,1.522,0,0,1,271,18.545a2.227,2.227,0,0,1-1.6.517,2.89,2.89,0,0,1-1.357-.3,1.442,1.442,0,0,1-.657-.779,2.293,2.293,0,0,1-.134-.566Z" transform="translate(-98.145 -5.055)" fill="#fff"/>
  <path id="Path_20" data-name="Path 20" d="M279.958,18.073a6.981,6.981,0,0,0,.049.918h-1.344a6.818,6.818,0,0,0,.048-.918V15.007h-.718a8.346,8.346,0,0,0-.919.042V13.888a8.439,8.439,0,0,0,.907.042h2.664a8.062,8.062,0,0,0,.949-.042V15.05a7.867,7.867,0,0,0-.949-.042h-.687Z" transform="translate(-101.751 -5.1)" fill="#fff"/>
  <path id="Path_21" data-name="Path 21" d="M291.458,19.034a7.837,7.837,0,0,0-1-.042h-1.916c-.463,0-.633.006-.894.018a5.666,5.666,0,0,0,.048-.888V14.8a6.522,6.522,0,0,0-.048-.888c.249.012.42.018.894.018h1.94a7.326,7.326,0,0,0,.906-.043v1.138a7.478,7.478,0,0,0-.906-.042H288.9v.894h1.314a7.241,7.241,0,0,0,.912-.043V16.96a7.523,7.523,0,0,0-.912-.042H288.9V17.94h1.569a8.39,8.39,0,0,0,.992-.042Z" transform="translate(-105.632 -5.1)" fill="#fff"/>
  <path id="Path_22" data-name="Path 22" d="M299.553,19.017a4.726,4.726,0,0,0-.262-.9l-.559-1.618c-.006-.031-.189-.6-.207-.645-.066-.219-.066-.219-.1-.3.036.383.061.882.061,1.2v1.32a6.48,6.48,0,0,0,.049.943h-1.2a6.693,6.693,0,0,0,.049-.943V14.905a8.4,8.4,0,0,0-.049-.949h1.606a4.472,4.472,0,0,0,.231.857l.912,2.622.906-2.622a4.162,4.162,0,0,0,.225-.857h1.612a7.119,7.119,0,0,0-.049.949v3.169a6.1,6.1,0,0,0,.049.943h-1.2a6.681,6.681,0,0,0,.049-.943V16.748c0-.146.018-.6.03-.791.018-.323.018-.323.024-.414-.133.475-.194.694-.273.912l-.59,1.667a5.621,5.621,0,0,0-.262.894Z" transform="translate(-109.192 -5.125)" fill="#fff"/>
  <path id="Path_1505" data-name="Path 1505" d="M36.992,22.529a18.5,18.5,0,1,1-18.5-18.5,18.5,18.5,0,0,1,18.5,18.5" transform="translate(0 -1.48)" fill="#fff"/>
  <rect id="Rectangle_1594" data-name="Rectangle 1594" width="208.004" height="41.062" fill="none"/>
  <g id="Group_3" data-name="Group 3" transform="translate(0 2.553)" clip-path="url(#clip-path)">
    <path id="Path_24" data-name="Path 24" d="M23.434,41.577a.837.837,0,0,1-.5-.168c-.8-.685-4.191-3.756-5.954-5.578C15.12,33.9,13.31,31.778,13.31,28.845a5.048,5.048,0,0,1,5.273-4.774,5.7,5.7,0,0,1,4.836,2.351,5.688,5.688,0,0,1,4.843-2.351,5.048,5.048,0,0,1,5.273,4.774c0,2.934-1.81,5.059-3.665,6.984-1.721,1.779-5.115,4.842-5.978,5.58a.7.7,0,0,1-.457.168m-4.851-16.1a3.645,3.645,0,0,0-3.865,3.364c0,2.411,1.548,4.217,3.271,6.007,1.417,1.465,4.157,3.985,5.422,5.107,1.235-1.092,3.97-3.583,5.444-5.108,1.723-1.788,3.27-3.594,3.27-6.006a3.644,3.644,0,0,0-3.864-3.364A4.134,4.134,0,0,0,24.1,28.164a.7.7,0,0,1-.662.463.737.737,0,0,1-.685-.46,4.155,4.155,0,0,0-4.167-2.687" transform="translate(-4.888 -11.392)" fill="#ed7a9b"/>
    <path id="Path_25" data-name="Path 25" d="M21.4,6.872a.572.572,0,0,0,.138-.017C24.995,6,23.906.9,23.858.687A.573.573,0,1,0,22.74.934c.009.042.9,4.221-1.476,4.809A.573.573,0,0,0,21.4,6.872" transform="translate(-7.649 -2.64)" fill="#ed7a9b"/>
    <path id="Path_26" data-name="Path 26" d="M28,6.856a.567.567,0,0,0,.218-.044C31.511,5.453,29.68.575,29.6.368a.573.573,0,0,0-1.07.411c.016.04,1.522,4.037-.746,4.974A.573.573,0,0,0,28,6.856" transform="translate(-10.073 -2.553)" fill="#ed7a9b"/>
    <path id="Path_27" data-name="Path 27" d="M34.419,6.936a.562.562,0,0,0,.272-.07c3.13-1.695.8-6.355.7-6.552a.573.573,0,0,0-1.021.52c.02.039,1.928,3.861-.222,5.025a.573.573,0,0,0,.273,1.077" transform="translate(-12.429 -2.553)" fill="#ed7a9b"/>
    <path id="Path_28" data-name="Path 28" d="M21.131,15.434a1.374,1.374,0,1,0-1.374-1.374,1.374,1.374,0,0,0,1.374,1.374" transform="translate(-7.255 -7.212)" fill="#ed7a9b"/>
    <path id="Path_29" data-name="Path 29" d="M34.483,14.061a1.374,1.374,0,1,0,1.374-1.374,1.374,1.374,0,0,0-1.374,1.374" transform="translate(-12.663 -7.212)" fill="#ed7a9b"/>
    <path id="Path_30" data-name="Path 30" d="M23.39,18.44a.543.543,0,0,0-.083.762,5.417,5.417,0,0,0,3.674,1.938h.109a4.97,4.97,0,0,0,3.681-1.917.543.543,0,1,0-.808-.726,4,4,0,0,1-2.945,1.555,4.38,4.38,0,0,1-2.866-1.533.543.543,0,0,0-.763-.082" transform="translate(-8.515 -9.28)" fill="#ed7a9b"/>
    <path id="Path_31" data-name="Path 31" d="M19.452,46.052l-5.207-3.838a2.923,2.923,0,0,0-1.591-.587l-2.463-5.651-.014-.027a2.012,2.012,0,0,0-2.5-1.276c-.812.275-1.438,1.272-1.006,2.878l1.963,7.668.014.044a3.832,3.832,0,0,0,1.708,2.117c.587.337,2.189,1.472,2.9,1.979l.247,4.291a.114.114,0,0,0,.115.108h5.8a.117.117,0,0,0,.082-.034.113.113,0,0,0,.033-.082l-.031-7.5a.112.112,0,0,0-.046-.091m-8.365-3.576c-.6.917-.287,2.051.815,2.962L14.68,47.6a.114.114,0,0,0,.161-.02l.489-.628a.114.114,0,0,0-.02-.161l-2.761-2.145c-.251-.209-1.035-.941-.6-1.6a.774.774,0,0,1,.508-.37,1.671,1.671,0,0,1,1.19.378l4.832,3.562.022,6.126H14.443l-.206-3.88a.113.113,0,0,0-.047-.086l-.144-.1-.024-.017c-.564-.4-2.46-1.755-3.153-2.154a2.8,2.8,0,0,1-1.247-1.551L7.663,37.29c-.261-.968-.016-1.524.342-1.645.5-.168.906.08,1.249.751l2.4,5.505a1.929,1.929,0,0,0-.568.575" transform="translate(-2.398 -15.247)" fill="#ed7a9b"/>
    <path id="Path_32" data-name="Path 32" d="M43.361,34.672a2.011,2.011,0,0,0-2.5,1.282l-2.473,5.672a2.921,2.921,0,0,0-1.6.593l-5.2,3.832a.111.111,0,0,0-.047.091l-.03,7.5a.109.109,0,0,0,.033.082.113.113,0,0,0,.081.034h5.8a.114.114,0,0,0,.115-.108l.246-4.291c.581-.414,2.289-1.627,2.9-1.979a3.824,3.824,0,0,0,1.708-2.116s.009-.026.011-.03l1.964-7.676c.434-1.61-.192-2.609-1-2.884M36.995,48.66l-.144.1a.113.113,0,0,0-.047.087L36.6,52.731H32.54l.023-6.126,4.824-3.556a1.681,1.681,0,0,1,1.2-.384.765.765,0,0,1,.509.37c.434.666-.352,1.4-.6,1.6L35.73,46.786a.112.112,0,0,0-.043.077.114.114,0,0,0,.023.084l.489.629a.115.115,0,0,0,.161.02l2.782-2.16c1.1-.909,1.409-2.043.811-2.96a1.91,1.91,0,0,0-.567-.574l2.4-5.5c.347-.677.76-.926,1.252-.758.359.121.6.678.341,1.651l-1.953,7.632a2.8,2.8,0,0,1-1.25,1.562c-.693.4-2.589,1.75-3.153,2.154l-.024.017" transform="translate(-11.572 -15.246)" fill="#ed7a9b"/>
  </g>
</svg>
