<svg xmlns="http://www.w3.org/2000/svg" xmlns:xlink="http://www.w3.org/1999/xlink" width="14.438" height="26.273" viewBox="0 0 14.438 26.273">
  <defs>
    <clipPath id="clip-path">
      <rect id="Rectangle_4610" data-name="Rectangle 4610" width="14.438" height="26.273" transform="translate(0 0)" fill="#7fbf26"/>
    </clipPath>
  </defs>
  <g id="Group_6927" data-name="Group 6927" transform="translate(0 0.005)">
    <g id="Group_6925" data-name="Group 6925" transform="translate(0 -0.005)" clip-path="url(#clip-path)">
      <path id="Path_1538" data-name="Path 1538" d="M30.427,345.415a6.831,6.831,0,0,0-2.579-1.365,6.96,6.96,0,0,0-3.08-.148,6.828,6.828,0,0,0-5.553,5.505,6.917,6.917,0,0,0,1.061,5.135c.381.563.715,1,1.011,1.387a4.367,4.367,0,0,1,1.248,2.85.734.734,0,0,0,.732.684h5.46a.734.734,0,0,0,.732-.686,3.851,3.851,0,0,1,.483-1.787,10.529,10.529,0,0,1,.771-1.092c.282-.37.6-.788.967-1.32a6.893,6.893,0,0,0-1.253-9.162" transform="translate(-18.771 -337.896)" fill="#7fbf26"/>
      <path id="Path_1539" data-name="Path 1539" d="M261.82,1283.679h-4.579a.524.524,0,0,0,0,1.047h4.579a.524.524,0,0,0,0-1.047" transform="translate(-252.312 -1261.648)" fill="#7fbf26"/>
      <path id="Path_1540" data-name="Path 1540" d="M288.092,1372.132h-3.645a.523.523,0,1,0,0,1.047h3.645a.523.523,0,1,0,0-1.047" transform="translate(-279.051 -1348.583)" fill="#7fbf26"/>
      <path id="Path_1541" data-name="Path 1541" d="M350.93,1460.529h-1.894a.286.286,0,0,0-.286.286c0,.516.542.92,1.233.92s1.233-.4,1.233-.92a.286.286,0,0,0-.286-.286" transform="translate(-342.764 -1435.463)" fill="#7fbf26"/>
      <path id="Path_1542" data-name="Path 1542" d="M378.581,0a.734.734,0,0,0-.734.734v2.69a.734.734,0,0,0,1.468,0V.729A.734.734,0,0,0,378.581,0" transform="translate(-371.362 0.005)" fill="#7fbf26"/>
      <path id="Path_1543" data-name="Path 1543" d="M657.892,123.657a.734.734,0,0,0-1.034.09l-1.729,2.06a.734.734,0,1,0,1.125.944l1.729-2.06a.734.734,0,0,0-.09-1.034" transform="translate(-643.717 -121.366)" fill="#7fbf26"/>
      <path id="Path_1544" data-name="Path 1544" d="M1.3,121.016a.734.734,0,0,0-1.125.944L1.9,124.02a.734.734,0,1,0,1.125-.944Z" transform="translate(0 -118.681)" fill="#7fbf26"/>
      <path id="Path_1545" data-name="Path 1545" d="M220.022,597.767a.734.734,0,0,0-1.036.062l-3.174,3.578-1.388-1.574a.734.734,0,1,0-1.1.971l1.937,2.2a.734.734,0,0,0,.549.249h0a.734.734,0,0,0,.549-.247l3.725-4.2a.734.734,0,0,0-.062-1.036" transform="translate(-209.482 -587.327)" fill="#fff"/>
    </g>
  </g>
</svg>
