<svg id="Component_119_1" data-name="Component 119 – 1" xmlns="http://www.w3.org/2000/svg" width="23.066" height="23.066" viewBox="0 0 23.066 23.066">
  <path id="Path_1482" data-name="Path 1482" d="M23.066,21.035l-4.787-4.787a9.933,9.933,0,0,0,2.031-6.093A10.093,10.093,0,0,0,10.155,0,10.093,10.093,0,0,0,0,10.155,10.093,10.093,0,0,0,10.155,20.31a9.933,9.933,0,0,0,6.093-2.031l4.787,4.787ZM2.9,10.155A7.183,7.183,0,0,1,10.155,2.9a7.183,7.183,0,0,1,7.254,7.254,7.183,7.183,0,0,1-7.254,7.254A7.183,7.183,0,0,1,2.9,10.155Z" fill="#ed7a9b"/>
</svg>
